REM DIRINDEX 1\2,1\3,1\4,1\5,1\6
REM DIRNAME cjc030,folder01,folder02,folder03,folder04,folder05
TITLE ""
FILE "Disc1Track67.mp3" MP3
  TRACK 01 AUDIO
    TITLE "3:cjc030_01735"
    INDEX 01 00:00:00
  TRACK 02 AUDIO
    TITLE "0:"
    INDEX 01 00:00:74
  TRACK 03 AUDIO
    TITLE "4:cjc030_01736"
    INDEX 01 00:01:11
  TRACK 04 AUDIO
    TITLE "0:"
    INDEX 01 00:03:00
  TRACK 05 AUDIO
    TITLE "5:cjc030_01737"
    INDEX 01 00:03:08
  TRACK 06 AUDIO
    TITLE "0:"
    INDEX 01 00:04:11
  TRACK 07 AUDIO
    TITLE "3:cjc030_01738"
    INDEX 01 00:04:58
  TRACK 08 AUDIO
    TITLE "0:"
    INDEX 01 00:05:61
  TRACK 09 AUDIO
    TITLE "4:cjc030_01739"
    INDEX 01 00:05:71
  TRACK 10 AUDIO
    TITLE "0:"
    INDEX 01 00:07:29
  TRACK 11 AUDIO
    TITLE "5:cjc030_01740"
    INDEX 01 00:07:35
  TRACK 12 AUDIO
    TITLE "0:"
    INDEX 01 00:08:42
  TRACK 13 AUDIO
    TITLE "6:cjc030_01741"
    INDEX 01 00:08:54
  TRACK 14 AUDIO
    TITLE "0:"
    INDEX 01 00:13:47
  TRACK 15 AUDIO
    TITLE "3:cjc030_01742"
    INDEX 01 00:14:19
  TRACK 16 AUDIO
    TITLE "0:"
    INDEX 01 00:15:50
  TRACK 17 AUDIO
    TITLE "4:cjc030_01743"
    INDEX 01 00:15:60
  TRACK 18 AUDIO
    TITLE "0:"
    INDEX 01 00:16:44
  TRACK 19 AUDIO
    TITLE "5:cjc030_01744"
    INDEX 01 00:16:53
  TRACK 20 AUDIO
    TITLE "0:"
    INDEX 01 00:18:11
  TRACK 21 AUDIO
    TITLE "6:cjc030_01745"
    INDEX 01 00:18:21
  TRACK 22 AUDIO
    TITLE "0:"
    INDEX 01 00:22:30
  TRACK 23 AUDIO
    TITLE "3:cjc030_01746"
    INDEX 01 00:23:04
  TRACK 24 AUDIO
    TITLE "0:"
    INDEX 01 00:24:14
  TRACK 25 AUDIO
    TITLE "4:cjc030_01747"
    INDEX 01 00:24:20
  TRACK 26 AUDIO
    TITLE "0:"
    INDEX 01 00:26:58
  TRACK 27 AUDIO
    TITLE "5:cjc030_01748"
    INDEX 01 00:26:66
  TRACK 28 AUDIO
    TITLE "0:"
    INDEX 01 00:28:00
  TRACK 29 AUDIO
    TITLE "6:cjc030_01749"
    INDEX 01 00:28:12
  TRACK 30 AUDIO
    TITLE "0:"
    INDEX 01 00:30:20
  TRACK 31 AUDIO
    TITLE "3:cjc030_01750"
    INDEX 01 00:30:69
  TRACK 32 AUDIO
    TITLE "0:"
    INDEX 01 00:32:03
  TRACK 33 AUDIO
    TITLE "4:cjc030_01751"
    INDEX 01 00:32:11
  TRACK 34 AUDIO
    TITLE "0:"
    INDEX 01 00:33:19
  TRACK 35 AUDIO
    TITLE "5:cjc030_01752"
    INDEX 01 00:33:26
  TRACK 36 AUDIO
    TITLE "0:"
    INDEX 01 00:34:38
  TRACK 37 AUDIO
    TITLE "3:cjc030_01753"
    INDEX 01 00:35:15
  TRACK 38 AUDIO
    TITLE "0:"
    INDEX 01 00:36:33
  TRACK 39 AUDIO
    TITLE "4:cjc030_01754"
    INDEX 01 00:36:42
  TRACK 40 AUDIO
    TITLE "0:"
    INDEX 01 00:37:38
  TRACK 41 AUDIO
    TITLE "5:cjc030_01755"
    INDEX 01 00:37:48
  TRACK 42 AUDIO
    TITLE "0:"
    INDEX 01 00:38:65
  TRACK 43 AUDIO
    TITLE "6:cjc030_01756"
    INDEX 01 00:39:02
  TRACK 44 AUDIO
    TITLE "0:"
    INDEX 01 00:43:74
  TRACK 45 AUDIO
    TITLE "3:cjc030_01757"
    INDEX 01 00:44:48
  TRACK 46 AUDIO
    TITLE "0:"
    INDEX 01 00:45:73
  TRACK 47 AUDIO
    TITLE "4:cjc030_01758"
    INDEX 01 00:46:07
  TRACK 48 AUDIO
    TITLE "0:"
    INDEX 01 00:47:03
  TRACK 49 AUDIO
    TITLE "5:cjc030_01759"
    INDEX 01 00:47:11
  TRACK 50 AUDIO
    TITLE "0:"
    INDEX 01 00:48:38
  TRACK 51 AUDIO
    TITLE "6:cjc030_01760"
    INDEX 01 00:48:49
  TRACK 52 AUDIO
    TITLE "0:"
    INDEX 01 00:53:29
  TRACK 53 AUDIO
    TITLE "3:cjc030_01761"
    INDEX 01 00:54:05
  TRACK 54 AUDIO
    TITLE "0:"
    INDEX 01 00:55:08
  TRACK 55 AUDIO
    TITLE "4:cjc030_01762"
    INDEX 01 00:55:18
  TRACK 56 AUDIO
    TITLE "0:"
    INDEX 01 00:56:24
  TRACK 57 AUDIO
    TITLE "5:cjc030_01763"
    INDEX 01 00:56:29
  TRACK 58 AUDIO
    TITLE "0:"
    INDEX 01 00:57:35
  TRACK 59 AUDIO
    TITLE "3:cjc030_01764"
    INDEX 01 00:58:17
  TRACK 60 AUDIO
    TITLE "0:"
    INDEX 01 00:59:28
  TRACK 61 AUDIO
    TITLE "4:cjc030_01765"
    INDEX 01 00:59:39
  TRACK 62 AUDIO
    TITLE "0:"
    INDEX 01 01:02:26
  TRACK 63 AUDIO
    TITLE "5:cjc030_01766"
    INDEX 01 01:02:32
  TRACK 64 AUDIO
    TITLE "0:"
    INDEX 01 01:03:47
  TRACK 65 AUDIO
    TITLE "3:cjc030_01767"
    INDEX 01 01:04:27
  TRACK 66 AUDIO
    TITLE "0:"
    INDEX 01 01:05:38
  TRACK 67 AUDIO
    TITLE "4:cjc030_01768"
    INDEX 01 01:05:44
  TRACK 68 AUDIO
    TITLE "0:"
    INDEX 01 01:07:41
  TRACK 69 AUDIO
    TITLE "5:cjc030_01769"
    INDEX 01 01:07:47
  TRACK 70 AUDIO
    TITLE "0:"
    INDEX 01 01:08:60
  TRACK 71 AUDIO
    TITLE "6:cjc030_01770"
    INDEX 01 01:08:74
  TRACK 72 AUDIO
    TITLE "0:"
    INDEX 01 01:12:21
  TRACK 73 AUDIO
    TITLE "3:cjc030_01771"
    INDEX 01 01:12:70
  TRACK 74 AUDIO
    TITLE "0:"
    INDEX 01 01:14:00
  TRACK 75 AUDIO
    TITLE "4:cjc030_01772"
    INDEX 01 01:14:08
  TRACK 76 AUDIO
    TITLE "0:"
    INDEX 01 01:16:07
  TRACK 77 AUDIO
    TITLE "5:cjc030_01773"
    INDEX 01 01:16:16
  TRACK 78 AUDIO
    TITLE "0:"
    INDEX 01 01:17:20
  TRACK 79 AUDIO
    TITLE "6:cjc030_01774"
    INDEX 01 01:17:33
  TRACK 80 AUDIO
    TITLE "0:"
    INDEX 01 01:19:17
  TRACK 81 AUDIO
    TITLE "3:cjc030_01775"
    INDEX 01 01:19:68
  TRACK 82 AUDIO
    TITLE "0:"
    INDEX 01 01:21:04
  TRACK 83 AUDIO
    TITLE "4:cjc030_01776"
    INDEX 01 01:21:14
  TRACK 84 AUDIO
    TITLE "0:"
    INDEX 01 01:21:74
  TRACK 85 AUDIO
    TITLE "5:cjc030_01777"
    INDEX 01 01:22:05
  TRACK 86 AUDIO
    TITLE "0:"
    INDEX 01 01:23:20
  TRACK 87 AUDIO
    TITLE "6:cjc030_01778"
    INDEX 01 01:23:32
  TRACK 88 AUDIO
    TITLE "0:"
    INDEX 01 01:28:53
  TRACK 89 AUDIO
    TITLE "3:cjc030_01779"
    INDEX 01 01:29:25
  TRACK 90 AUDIO
    TITLE "0:"
    INDEX 01 01:30:34
  TRACK 91 AUDIO
    TITLE "4:cjc030_01780"
    INDEX 01 01:30:44
  TRACK 92 AUDIO
    TITLE "0:"
    INDEX 01 01:32:37
  TRACK 93 AUDIO
    TITLE "5:cjc030_01781"
    INDEX 01 01:32:47
  TRACK 94 AUDIO
    TITLE "0:"
    INDEX 01 01:33:56
  TRACK 95 AUDIO
    TITLE "6:cjc030_01782"
    INDEX 01 01:33:70
  TRACK 96 AUDIO
    TITLE "0:"
    INDEX 01 01:37:62
